<?xml version="1.0" encoding="UTF-8"?>
<svg id="Layer_1" data-name="Layer 1" xmlns="http://www.w3.org/2000/svg" version="1.1" viewBox="0 0 841.9 841.9">
  <defs>
    <style>
      .cls-1 {
        fill: #fff;
      }

      .cls-1, .cls-2 {
        stroke-width: 0px;
      }

      .cls-2 {
        fill: #3e4c44;
      }
    </style>
  </defs>
  <circle class="cls-2" cx="421.5" cy="420.9" r="344.5"/>
  <g>
    <path class="cls-1" d="M225.9,249l159.7,181.2c9.1,10.3,22.2,16.2,35.9,16.2s26.8-5.9,35.9-16.2l156.9-178.1c1.3-1.5,2.8-2.6,4.4-3.5-6.7-2.9-14-4.6-21.7-4.6H245.9c-7.4,0-14.4,1.5-20.8,4.2.3.3.6.5.8.8Z"/>
    <path class="cls-1" d="M643,269.5c-.7,1.8-1.7,3.6-3.1,5.2l-156.9,178.1c-15.5,17.6-37.9,27.7-61.4,27.7s-45.9-10.1-61.5-27.7l-159.7-181.2c-.3-.4-.5-.8-.8-1.2-4.9,8.2-7.8,17.7-7.8,27.9v245.3c0,30,24.3,54.2,54.2,54.2h351.1c30,0,54.2-24.3,54.2-54.2v-245.3c0-10.6-3.1-20.5-8.3-28.8Z"/>
  </g>
</svg>