<?xml version="1.0" encoding="UTF-8"?>
<svg id="Layer_1" data-name="Layer 1" xmlns="http://www.w3.org/2000/svg" version="1.1" viewBox="0 0 841.9 841.9">
  <defs>
    <style>
      .cls-1 {
        fill: #fff;
      }

      .cls-1, .cls-2 {
        stroke-width: 0px;
      }

      .cls-2 {
        fill: #3e4c44;
      }
    </style>
  </defs>
  <circle class="cls-2" cx="421.5" cy="421.7" r="342.1"/>
  <g>
    <path class="cls-1" d="M576.2,525.6V249.3c0-30.8-25-55.8-55.8-55.8h-197.8c-30.8,0-55.8,25-55.8,55.8v276.3h309.4ZM421.5,228.2c9.2,0,16.7,7.5,16.7,16.7s-7.5,16.7-16.7,16.7-16.7-7.5-16.7-16.7,7.5-16.7,16.7-16.7Z"/>
    <path class="cls-1" d="M266.8,559v35.1c0,30.8,25,55.8,55.8,55.8h197.8c30.8,0,55.8-25,55.8-55.8v-35.1h-309.4ZM421.5,618.9c-9.2,0-16.7-7.5-16.7-16.7s7.5-16.7,16.7-16.7,16.7,7.5,16.7,16.7-7.5,16.7-16.7,16.7Z"/>
  </g>
</svg>