<?xml version="1.0" encoding="UTF-8"?>
<svg id="Layer_1" data-name="Layer 1" xmlns="http://www.w3.org/2000/svg" version="1.1" viewBox="0 0 841.9 841.9">
  <defs>
    <style>
      .cls-1 {
        fill: #fff;
      }

      .cls-1, .cls-2 {
        stroke-width: 0px;
      }

      .cls-2 {
        fill: #3e4c44;
      }
    </style>
  </defs>
  <circle class="cls-2" cx="423.1" cy="421.7" r="344.6"/>
  <g>
    <path class="cls-1" d="M337.7,438.8c3.9,116.6,46.7,196.4,85.4,196.4s81.5-79.8,85.4-196.4h-170.8Z"/>
    <path class="cls-1" d="M423.1,208.2c-38.7,0-81.5,79.8-85.4,196.4h170.8c-3.9-116.6-46.7-196.4-85.4-196.4Z"/>
    <path class="cls-1" d="M542.7,404.6h110.3c-7.5-101.7-80.8-185-177.6-207.5,38.4,36.5,64.5,113.3,67.3,207.5Z"/>
    <path class="cls-1" d="M542.7,438.8c-2.8,94.2-28.9,171-67.3,207.5,96.8-22.4,170.2-105.8,177.6-207.5h-110.3Z"/>
    <path class="cls-1" d="M303.5,438.8h-110.3c7.5,101.7,80.8,185,177.6,207.5-38.4-36.5-64.5-113.3-67.3-207.5Z"/>
    <path class="cls-1" d="M303.5,404.6c2.8-94.2,28.9-171,67.3-207.5-96.8,22.4-170.2,105.8-177.6,207.5h110.3Z"/>
  </g>
</svg>