<?xml version="1.0" encoding="UTF-8"?>
<svg id="Layer_1" data-name="Layer 1" xmlns="http://www.w3.org/2000/svg" version="1.1" viewBox="0 0 841.9 841.9">
  <defs>
    <style>
      .cls-1 {
        fill: #444d45;
      }

      .cls-1, .cls-2 {
        stroke-width: 0px;
      }

      .cls-2 {
        fill: #f8f8f8;
      }
    </style>
  </defs>
  <circle class="cls-1" cx="420" cy="421" r="364.6"/>
  <path class="cls-2" d="M533.2,283c-13.8,0-25,11.2-25,25s11.2,25,25,25,25-11.2,25-25c.1-13.8-11.2-25-25-25Z"/>
  <path class="cls-2" d="M421.9,315.2c-58,0-105.3,47.2-105.3,105.3s47.2,105.3,105.3,105.3,105.3-47.2,105.3-105.3c0-58-47.2-105.3-105.3-105.3ZM421.9,487.9c-37.2,0-67.4-30.2-67.4-67.4s30.2-67.4,67.4-67.4,67.4,30.2,67.4,67.4-30.2,67.4-67.4,67.4Z"/>
  <path class="cls-2" d="M505.4,634.2h-170.7c-70.8,0-128.5-57.6-128.5-128.5v-170.6c0-70.8,57.6-128.5,128.5-128.5h170.7c70.8,0,128.5,57.6,128.5,128.5v170.7c0,70.8-57.7,128.3-128.5,128.3ZM334.7,246.9c-48.7,0-88.2,39.6-88.2,88.2v170.7c0,48.7,39.6,88.2,88.2,88.2h170.7c48.7,0,88.2-39.6,88.2-88.2v-170.7c0-48.7-39.6-88.2-88.2-88.2h-170.7Z"/>
</svg>